<?xml version="1.0" encoding="utf-8"?>
<!-- Generator: Adobe Illustrator 24.1.3, SVG Export Plug-In . SVG Version: 6.00 Build 0)  -->
<svg version="1.1" id="Layer_1" xmlns="http://www.w3.org/2000/svg" xmlns:xlink="http://www.w3.org/1999/xlink" x="0px" y="0px"
	 viewBox="150 00 850 800"  style="enable-background:new 0 0 1000 800; height: 55px" xml:space="preserve">
<style type="text/css">
	.st0{fill:#262262;}
	.st1{fill:#231F20;}
	.st2{fill:#BE1E2D;}
	.st3{fill:#00A651;}
	.st4{fill:#EF4136;}
	.st5{fill:#00AEEF;}
	.st6{fill:#C9BB6D;}
	.st7{fill:#ED1C24;}
	.st8{fill:none;}
	.st9{fill:#F7941D;}
	.st10{fill:#2E3192;}
</style>
<g>
	<path class="st0" d="M827.27,183.99c-12.81-36.58-33.31-70.19-61.07-95.17c-37.67-33.9-86.74-50.71-135.48-52.27
		c-25.35-0.81-50.6,2.3-75.29,8.34c-6.17,1.51-4.91,11.56,1.4,11.15c18.2-1.17,36.46-0.49,54.5,2.51
		c40.35,6.71,80.55,25.97,109.69,58.29c33.07,36.68,50.41,88.22,52.91,139.68c2.5,51.46-8.98,102.86-27.33,150.32
		C698,532.44,598.96,633.44,481.09,677.6c-72.64,27.21-158.99,31.17-220.65-18.9c-24.41-19.82-43.64-47.28-55.8-77.71
		c-7.88-19.72-9.75-40.27-11.38-61c-0.57-7.25-10.49-6.67-10.29,0.61c0.16,5.81,0.55,11.56,0.56,16.87c0,0.1,0,0.21,0.01,0.31
		l1.22,19.66c0.52,4.87,1.17,9.4,1.91,13.39c7.31,39.21,21.09,77.53,43.96,108.74c37.09,50.63,96.07,78.71,155.21,83.27
		c59.14,4.56,118.36-12.63,172.11-39.99c72.75-37.03,137.1-93.3,186.86-162.13c22.22-30.74,41.66-64.24,57.48-99.4
		c24.66-54.8,41.09-115.5,41.26-176.92C843.64,250.46,838.68,216.6,827.27,183.99z"/>
	<g>
		<path class="st1" d="M405.63,324.86c0,13.33-0.12,25.4,0.07,37.46c0.06,3.66-0.84,6.28-2.93,8.64c-7,7.93-21.3,7.95-28.23-0.09
			c-1.52-1.76-2.6-3.71-2.59-6.67c0.08-35.21,0.06-70.42,0.07-105.62c0-0.55,0.04-1.1,0.09-2.25c5.48,6.48,11.85,7.31,18.59,6.06
			c2.64-0.49,5.22-1.61,7.11-3.91c1.83-2.23,2.62-1.68,4.01,0.58c13.33,21.69,26.75,43.29,40.14,64.91
			c0.26,0.43,0.59,0.79,0.93,1.26c0.86-1.19,0.44-2.52,0.44-3.71c-0.02-20.98-0.03-41.96-0.19-62.94c-0.02-2.26,0.45-2.67,2.03-2.66
			c10.06,0.06,20.12,0.15,30.18-0.05c2.95-0.06,2.3,2.19,2.3,4.18c0.01,35.64,0.01,71.28,0.01,106.92c0,7.76-0.07,15.52,0.04,23.28
			c0.03,2.38-0.45,3.2-2.45,3.18c-9.72-0.13-19.43-0.16-29.15,0.02c-2.16,0.04-3-1.46-3.99-3.24
			c-11.45-20.57-22.91-41.12-34.37-61.68C407.25,327.61,406.72,326.73,405.63,324.86z"/>
	</g>
	<path class="st2" d="M379.86,394.66c6.23,2.43,11.8,2.6,18.04-0.03c-2.31,6.72-4.03,13.02-6.99,18.81
		c-1.21,2.37-3.11,1.93-4.52-1.03C383.8,406.92,382.07,401.07,379.86,394.66z"/>
	<path class="st3" d="M386.13,255.72c-2.38-0.36-5.35,0-5.93-4.37c-0.35-2.67,2.59-4.64,6.31-4.49c0.68,0.03,1.41-0.02,2.01,0.29
		c1.66,0.85,3.72,1.55,3.44,4.49c-0.26,2.68-2.09,3.48-3.96,3.89C387.45,255.65,386.87,255.65,386.13,255.72z"/>
	<path class="st4" d="M382.17,463.79c-21.24-20.66-46.9-36.72-72.4-50.14c-23.82-12.59-48.52-23.17-73.84-31.55
		c-12.88-4.27-25.91-7.96-39.06-11.08c-7.08-1.68-26.65-10.08-31.61-1.4c-2.29,4.01-5.94,8.53-7.4,12.95
		c-1.81,5.5-2.68,4.37,2.66,7.12c8.1,4.18,19.42,4.29,28.2,6.25c16.68,3.73,33.6,7.33,50.07,12.03
		c24.46,6.98,48.63,15.17,72.43,24.5c24.21,9.49,47.1,22.5,71.34,31.68C382.42,464.04,382.29,463.91,382.17,463.79z"/>
	<path class="st5" d="M331.51,353.95c-8.39-7.87-17.26-15.12-26.43-21.72c-12.74-9.16-25.75-17.8-39.85-24.68
		c-2.94-1.43-3.59-2.36-1.9-5.51c15.33-28.56,30.55-57.19,45.54-85.93c2.16-4.14,4.21-4.93,8.61-3.68
		c19.44,5.51,35.38,16.76,50.37,29.72c2.2,1.9,3.95,4.27,6.68,4.95c-9.81-20.36-34.38-38.51-52.63-48.65
		c-6.58-3.66-12.68-8.18-19.69-11.08c-6,12.74-13.09,24.93-19.66,37.36c-5.53,10.45-11.35,20.85-17.2,31.18
		c-10.52,18.56-20.16,37.61-30.55,56.24c-2.22,3.97-1.4,5.01,2.42,5.92c13.02,3.11,25.61,7.65,37.34,13.97
		c18.44,9.95,35.51,21.99,51.06,36.13c17.36,15.78,32.63,33.36,46.19,52.47c7.3,10.28,14.48,20.66,21.12,31.46
		c-5.71-9.48-7.5-20.62-11.61-30.86c-4.35-10.84-11.05-21.04-17.62-30.39C354.25,377.41,343.36,365.06,331.51,353.95z"/>
	<path class="st5" d="M175.15,334.61c-2.16-0.24-3.33-2.83-2.2-4.86c0.01-0.01,0.02-0.03,0.02-0.04c4.87-8.87,9.47-17.93,13.9-26.96
		c5.37-10.94,10.73-21.9,16.11-32.85c8.92-18.18,18.16-36.21,27.13-54.37c1.16-2.35,2.45-3.29,5.06-3.17
		c3.16,0.14,6.33,0.11,9.74,0.08c2.2-0.02,3.62,2.54,2.59,4.68c-1.06,2.19-2.08,4.29-3.14,6.36c-15.16,29.59-30.3,59.2-45.61,88.72
		c-1.7,3.29-1.26,4.4,2.27,5.41c12.43,3.54,24.28,8.7,36.03,13.97c19.34,8.67,37.9,18.89,55.48,30.77
		c11.01,7.44,21.72,15.33,31.76,24.05c17.91,15.56,34.47,32.41,48.1,51.92c3.37,4.83,7.28,9.37,9.68,14.85l0.15,0.08
		c-20.14-20.38-41.91-38.76-65.37-55.31c-15.71-11.09-31.7-21.64-48.65-30.64c-19.16-10.17-38.86-19.14-59.89-24.85
		C197.52,338.66,186.5,335.86,175.15,334.61z"/>
	<path class="st6" d="M382.07,453.15c0.1-0.03,0.2-0.05,0.3-0.08c-0.06,0.05-0.12,0.1-0.16,0.15
		C382.22,453.23,382.07,453.15,382.07,453.15z"/>
	<g>
		<path class="st1" d="M626.19,367.57c4.28-5.71,9.22-6.44,14.31-3.02c4.78,3.22,7.02,9.12,6.57,16.65c-0.2,3.33,0.34,5.4,2.31,7.44
			c19.61,20.3,47.7,16.87,64.67-7.9c2.32-3.39,2.86-5.25-0.65-7.91c-3.43-2.6-5.49-3.46-9.02,0.99
			c-14.37,18.13-35.88,18.48-50.64,1.81c-15.02-16.97-19.8-46.83-11.15-70.63c0.7-1.93,0.89-7.52,3.93-4
			c1.99,2.31,7.45,1.71,4.36,9.87c-7.34,19.35-2.56,43.96,10.41,56.28c12.97,12.33,30.38,8.94,40.51-7.89
			c2.21-3.68,3.57-6.64,7.03-4.83c3.95,2.06,7.34,5.53,10.91,8.62c2.55,2.2,8.43,4.28,9.48,8.73c0.63,2.66-1.65,5.96-2.61,7.87
			c-19.16,38.25-56.05,46.72-83.12,18.99c-1.91-1.96-3.47-2.83-6-2.01c-5.06,1.62-9.43-0.82-12.4-7.21
			C621.55,381.78,622.85,374.56,626.19,367.57z"/>
		<path class="st1" d="M722.99,273.81c-12.22-19.38-30.95-29.71-49.11-27.46c-34.33,4.25-60.82,59.88-52.75,108.06
			c0.39,2.31,0.93,2.09,1.96,1.2c1.22-1.05,2.55-1.8,3.95-2.2c2.75-0.8,3.87-2.91,3-8.48c-2.59-16.69,0.2-37.17,6.14-51.51
			c5.1-12.32,13.27-21.67,22.42-27.27c7.79-4.77,16.41-6.79,24.86-5.78c9.82,1.17,19.38,6.44,27.22,14.99
			c0.17,0.18,0.35,0.4,0.37,0.69c0.03,0.32-0.13,0.6-0.28,0.83c-1.34,2.11-2.68,4.22-4.02,6.33c-0.49,0.77-1.02,1.58-1.73,1.83
			c-0.85,0.31-1.73-0.27-2.51-0.87c-3.53-2.7-6.87-6.04-10.65-7.92c-7.06-3.51-14.85-1.59-22.23-3.23
			c-3.67-0.81-7.39-2.51-11.03-1.48c-3.39,0.96-6.45,4.41-8.51,8.29c-4.46,8.4,0.47,23.38,7.91,23.86
			c6.58,0.42,12.18-2.93,13.9-11.93c0.77-4.03,2.18-4.93,4.61-5.16c7.58-0.69,14.4,2.12,20.67,8.28c2.68,2.64,4.44,8.91,7.38,8.28
			c2.73-0.58,4.99-5.58,7.46-8.64c3.59-5.07,7.13-10.22,10.8-15.17C724.27,277.38,724.53,276.27,722.99,273.81z"/>
		<path class="st7" d="M638.09,379.89c-0.21,2.77-1.1,4.36-2.86,4.25c-1.59-0.1-2.95-1.19-2.93-3.83c0.02-2.24,1.12-3.36,2.6-3.6
			C636.71,376.41,637.56,377.98,638.09,379.89z"/>
		<path class="st3" d="M663.19,287.5c-0.13,1.71-1.02,3.36-2.75,3.36c-1.69,0-2.76-1.46-2.77-4c-0.01-2.75,1.03-4.68,2.93-4.41
			C662.05,282.65,663.32,284.14,663.19,287.5z"/>
		<line class="st8" x1="678.55" y1="402.59" x2="678.55" y2="402.17"/>
	</g>
	<path class="st1" d="M616.16,407.17c-0.24-12.11-4.07-23.8-7.83-35.18c-6.66-20.16-12.31-40.63-17.82-61.14
		c-2.75-10.25-5.47-20.52-8.25-30.76c-3.06-11.26-5.38-27.53-17.66-32.48c-3.21-1.29-8.68-2.06-11.51,0.74
		c-2.54,2.51-2.1,6.95-1.72,8.94c4.79,25.13,11.49,48.7,18.26,72.37c6.55,22.92,13.48,45.73,20.22,68.6
		c1.43,4.84,2.48,10.79,6.46,14.3c3.62,3.19,8.71,2.51,13.24,1.84C614.33,413.68,616.27,412.5,616.16,407.17z"/>
	<path class="st9" d="M496.65,336.11c1.76-4.36,4.23-8.53,8.89-9.88c0.62-0.18,1.34-0.29,1.88,0.06c0.74,0.47,0.78,1.51,0.63,2.36
		c-0.36,2.2-1.38,4.23-2.32,6.26c-3.33,7.15-5.97,14.61-7.85,22.25c-0.8,3.23-1.53,6.64-3.71,9.18c-0.72,0.84-1.62,1.57-2.69,1.85
		s-2.34,0.01-3.02-0.86c-0.85-1.09-0.55-2.64-0.2-3.98c1.88-7.17,3.77-14.36,6.27-21.36C495.18,340.16,495.84,338.11,496.65,336.11z
		"/>
	<path class="st9" d="M498.93,365.94c1.57-3.48,8.13-5.21,11.14-5.96c5.92-1.47,10.12-3.99,12.14-9.98
		c1.92-5.7,3.98-11.3,5.77-17.09c0.87-2.82,2.59-3.57,4.72-1.15c5.78,6.56,11.57,15.62,20.63,17.85c2.38,0.48,5.28-0.52,7.52,0.8
		c4.49,2.67,6.05,14.17,5.18,18.85c-0.54,2.88-2.33,2.71-4.38,2.73c-10.56,0.08-21.12,0.08-31.68,0.06
		c-5.28-0.01-10.56-0.03-15.84-0.04C510.61,372.01,495.26,374.08,498.93,365.94z"/>
	<path class="st5" d="M518.55,310.49c3.08-10.51,6.15-21.01,9.23-31.52c1.35-4.62,2.7-9.24,4.18-13.79
		c0.57-1.76,1.18-3.55,2.23-4.83c3.04-3.69,6.86,0.71,7.16,5.3c0.33,5.12-1.5,10-2.83,14.62c-1.55,5.38-3.1,10.75-4.79,16.06
		c-3.44,10.82-7.14,21.49-10.47,32.37c-1.03,3.37-2.03,6.76-2.97,10.19c-0.87,3.15-1.71,6.37-3.17,9.08
		c-1.46,2.71-3.66,4.89-6.11,5.01c-1.03,0.05-2.15-0.33-2.79-1.44c-1-1.72-0.44-4.22,0.15-6.26
		C511.76,333.69,515.16,322.09,518.55,310.49z"/>
	<path class="st10" d="M506.93,378.82c0.72,0.38-4.6,14.34-5.13,15.61c-2.82,6.8-6.26,12.83-9.97,18.93
		c-0.51,0.85-1.94,2.57-2.65,0.91c-0.23-0.54-0.19-1.19-0.15-1.8c0.53-6.8,1.21-13.76,2.65-20.36c0.81-3.71,1.62-7.78,3.51-10.91
		c1.35-2.23,3.35-2.84,5.51-2.87C502.42,378.29,505.46,378.06,506.93,378.82z"/>
	<path class="st1" d="M589.76,259.63"/>
</g>
</svg>